<svg width="38" height="38" viewBox="0 0 38 38" fill="none" xmlns="http://www.w3.org/2000/svg">
<path d="M18.7678 1.56399C14.2533 1.51812 9.90529 3.26656 6.67934 6.42505C3.45339 9.58355 1.61348 13.8937 1.56396 18.4081C1.58136 21.9758 2.72905 25.4462 4.84218 28.3209C6.95531 31.1955 9.92515 33.3265 13.3251 34.4077C14.1853 34.5641 14.4981 34.048 14.4981 33.5944C14.4981 33.1409 14.4981 32.1399 14.4981 30.7323C9.71233 31.7489 8.69574 28.4802 8.69574 28.4802C8.37715 27.454 7.69984 26.5769 6.78768 26.0091C5.22369 24.9769 6.9128 24.9925 6.9128 24.9925C7.45339 25.0648 7.9706 25.2585 8.42565 25.5591C8.8807 25.8598 9.26177 26.2596 9.54029 26.7285C10.0256 27.5701 10.822 28.1875 11.758 28.4479C12.694 28.7082 13.6948 28.5906 14.545 28.1205C14.6325 27.264 15.0203 26.4661 15.6398 25.8683C11.8237 25.446 7.81991 24.0072 7.81991 17.5479C7.78578 15.863 8.40834 14.2309 9.55593 12.9967C9.03329 11.5501 9.095 9.95683 9.72797 8.55501C9.72797 8.55501 11.1825 8.10145 14.4199 10.2754C17.2381 9.52442 20.2037 9.52442 23.0218 10.2754C26.3062 8.10145 27.7138 8.55501 27.7138 8.55501C28.3468 9.95683 28.4085 11.5501 27.8858 12.9967C29.0601 14.2083 29.7164 15.8294 29.7157 17.5166C29.7157 23.9915 25.6806 25.4148 21.8958 25.837C22.3102 26.2394 22.6303 26.7286 22.8332 27.2694C23.036 27.8103 23.1164 28.3894 23.0688 28.965V33.5788C23.0688 33.5788 23.3816 34.5641 24.2418 34.392C27.6321 33.3041 30.5919 31.1727 32.6985 28.3021C34.8051 25.4315 35.9507 21.9687 35.9716 18.4081C35.9221 13.8937 34.0822 9.58355 30.8563 6.42505C27.6303 3.26656 23.2823 1.51812 18.7678 1.56399Z" fill="white"/>
</svg>
