<svg width="25" height="27" viewBox="0 0 25 27" fill="none" xmlns="http://www.w3.org/2000/svg">
<path d="M22.3214 1.6875H2.67857C1.19978 1.6875 0 2.82129 0 4.21875V22.7812C0 24.1787 1.19978 25.3125 2.67857 25.3125H22.3214C23.8002 25.3125 25 24.1787 25 22.7812V4.21875C25 2.82129 23.8002 1.6875 22.3214 1.6875ZM8.06362 16.8223C6.10491 16.8223 4.52009 15.3246 4.52009 13.4736C4.52009 11.6227 6.10491 10.125 8.06362 10.125C10.0223 10.125 11.6071 11.6227 11.6071 13.4736C11.6071 15.3246 10.0223 16.8223 8.06362 16.8223ZM16.9364 16.8223C14.9777 16.8223 13.3929 15.3246 13.3929 13.4736C13.3929 11.6227 14.9777 10.125 16.9364 10.125C18.8951 10.125 20.4799 11.6227 20.4799 13.4736C20.4799 15.3246 18.8951 16.8223 16.9364 16.8223Z" fill="#5F5555"/>
</svg>
