<svg width="26" height="27" viewBox="0 0 26 27" fill="none" xmlns="http://www.w3.org/2000/svg">
<path d="M13 1.12515C9.87296 1.09215 6.8612 2.34983 4.62667 4.62179C2.39213 6.89374 1.11767 9.99407 1.08337 13.2414C1.09542 15.8077 1.8904 18.304 3.35411 20.3718C4.81782 22.4396 6.87496 23.9724 9.23004 24.7501C9.82588 24.8626 10.0425 24.4914 10.0425 24.1651C10.0425 23.8389 10.0425 23.1189 10.0425 22.1064C6.72754 22.8376 6.02337 20.4864 6.02337 20.4864C5.8027 19.7483 5.33354 19.1173 4.70171 18.7089C3.61837 17.9664 4.78837 17.9776 4.78837 17.9776C5.16283 18.0296 5.52109 18.169 5.83629 18.3853C6.15149 18.6015 6.41545 18.8891 6.60837 19.2264C6.94457 19.8318 7.4962 20.2759 8.14455 20.4632C8.7929 20.6504 9.48613 20.5658 10.075 20.2276C10.1356 19.6116 10.4043 19.0377 10.8334 18.6076C8.19004 18.3039 5.41671 17.2689 5.41671 12.6226C5.39307 11.4107 5.8243 10.2366 6.61921 9.3489C6.25719 8.30835 6.29993 7.16225 6.73837 6.15389C6.73837 6.15389 7.74587 5.82765 9.98837 7.3914C11.9404 6.85121 13.9947 6.85121 15.9467 7.3914C18.2217 5.82765 19.1967 6.15389 19.1967 6.15389C19.6351 7.16225 19.6779 8.30835 19.3159 9.3489C20.1292 10.2204 20.5839 11.3865 20.5834 12.6001C20.5834 17.2576 17.7884 18.2814 15.1667 18.5851C15.4538 18.8746 15.6755 19.2265 15.816 19.6155C15.9565 20.0045 16.0122 20.4211 15.9792 20.8351V24.1539C15.9792 24.1539 16.1959 24.8626 16.7917 24.7389C19.1401 23.9563 21.1903 22.4232 22.6495 20.3583C24.1087 18.2934 24.9022 15.8026 24.9167 13.2414C24.8824 9.99407 23.6079 6.89374 21.3734 4.62179C19.1389 2.34983 16.1271 1.09215 13 1.12515Z" fill="#5F5555"/>
</svg>
