<svg width="30" height="30" viewBox="0 0 30 30" fill="none" xmlns="http://www.w3.org/2000/svg">
<path d="M24.2001 4.2002H5.79445C4.91425 4.2002 4.19995 4.8977 4.19995 5.7566V24.2417C4.19995 25.1018 4.91425 25.8002 5.79445 25.8002H24.2001C25.0809 25.8002 25.8 25.1018 25.8 24.2417V5.7566C25.8 4.8977 25.0809 4.2002 24.2001 4.2002ZM10.6062 22.6064H7.40095V12.2987H10.6062V22.6064ZM9.00355 10.8893C7.97665 10.8893 7.14655 10.0571 7.14655 9.0311C7.14655 8.0066 7.97665 7.1744 9.00355 7.1744C10.0281 7.1744 10.8603 8.0066 10.8603 9.0311C10.8603 10.0571 10.0281 10.8893 9.00355 10.8893ZM22.605 22.6064H19.4049V17.594C19.4049 16.3982 19.3815 14.8607 17.7396 14.8607C16.0722 14.8607 15.8181 16.163 15.8181 17.5073V22.6067H12.6156V12.2987H15.6891V13.7063H15.7329C16.1607 12.8963 17.2059 12.0416 18.7647 12.0416C22.0065 12.0416 22.6053 14.1758 22.6053 16.9523L22.605 22.6064Z" fill="#5F5555"/>
</svg>
