<svg width="417.285" height="85.938" viewBox="0 0 417.285 85.938" xmlns="http://www.w3.org/2000/svg"><g id="svgGroup" stroke-linecap="round" fill-rule="evenodd" font-size="9pt" stroke="#4148da" stroke-width="0.25mm" fill="#f4e7e7" style="stroke:#4148da;stroke-width:0.25mm;fill:#f4e7e7"><path d="M 316.357 85.938 L 295.41 85.938 L 286.182 0 L 302.979 0 L 307.715 54.248 L 312.549 0 L 328.564 0 L 333.154 54.248 L 337.744 0 L 354.736 0 L 345.361 85.938 L 324.756 85.938 L 320.459 44.58 L 316.357 85.938 Z M 67.969 85.938 L 50.879 85.938 L 50.879 0 L 67.871 0 L 67.871 34.424 L 75.879 0 L 93.164 0 L 83.545 39.356 L 95.166 85.938 L 77.344 85.938 L 67.969 44.336 L 67.969 85.938 Z M 115.186 85.938 L 98.096 85.938 L 98.096 0 L 115.088 0 L 115.088 34.424 L 123.096 0 L 140.381 0 L 130.762 39.356 L 142.383 85.938 L 124.561 85.938 L 115.186 44.336 L 115.186 85.938 Z M 211.23 85.938 L 193.848 85.938 L 193.848 0 L 220.215 0 Q 226.807 0 230.176 3.003 A 13.422 13.422 0 0 1 233.519 7.692 A 18.993 18.993 0 0 1 234.692 11.402 A 48.58 48.58 0 0 1 235.477 16.483 Q 235.749 19.106 235.817 22.064 A 87.332 87.332 0 0 1 235.84 24.073 A 45.299 45.299 0 0 1 235.648 28.382 Q 235.255 32.482 234.058 35.303 A 9.842 9.842 0 0 1 229.014 40.451 A 14.034 14.034 0 0 1 227.344 41.114 Q 231.396 41.944 233.032 45.142 Q 234.318 47.656 234.593 51.332 A 27.984 27.984 0 0 1 234.668 53.418 L 234.668 85.938 L 217.725 85.938 L 217.725 52.295 Q 217.725 48.536 216.187 47.632 A 5.063 5.063 0 0 0 215.042 47.156 Q 213.906 46.824 212.233 46.75 A 22.742 22.742 0 0 0 211.23 46.729 L 211.23 85.938 Z M 16.699 85.938 L 0 85.938 L 8.301 0 L 37.451 0 L 45.605 85.938 L 29.346 85.938 L 28.125 72.071 L 17.773 72.071 L 16.699 85.938 Z M 159.668 85.938 L 142.969 85.938 L 151.27 0 L 180.42 0 L 188.574 85.938 L 172.314 85.938 L 171.094 72.071 L 160.742 72.071 L 159.668 85.938 Z M 255.859 85.938 L 239.16 85.938 L 247.461 0 L 276.611 0 L 284.766 85.938 L 268.506 85.938 L 267.285 72.071 L 256.934 72.071 L 255.859 85.938 Z M 407.08 85.938 L 389.893 85.938 L 389.893 16.504 L 379.688 16.504 L 379.688 0 L 417.285 0 L 417.285 16.504 L 407.08 16.504 L 407.08 85.938 Z M 375.684 85.938 L 359.082 85.938 L 359.082 0 L 375.684 0 L 375.684 85.938 Z M 22.266 14.649 L 18.994 58.35 L 26.807 58.35 L 23.047 14.649 L 22.266 14.649 Z M 165.234 14.649 L 161.963 58.35 L 169.775 58.35 L 166.016 14.649 L 165.234 14.649 Z M 261.426 14.649 L 258.154 58.35 L 265.967 58.35 L 262.207 14.649 L 261.426 14.649 Z M 211.328 15.918 L 211.328 31.836 L 215.479 31.836 A 2.741 2.741 0 0 0 217.977 30.242 Q 218.729 28.886 218.95 26.374 A 26.311 26.311 0 0 0 219.043 24.073 A 51.129 51.129 0 0 0 219.006 22.038 Q 218.872 18.702 218.262 17.481 A 2.683 2.683 0 0 0 216.321 16.016 A 4.682 4.682 0 0 0 215.332 15.918 L 211.328 15.918 Z" vector-effect="non-scaling-stroke"/></g></svg>