<svg width="453.663" height="87.502" viewBox="0 0 453.663 87.502" xmlns="http://www.w3.org/2000/svg"><g id="svgGroup" stroke-linecap="round" fill-rule="evenodd" font-size="9pt" stroke="#b30a0a" stroke-width="0.25mm" fill="#f4e7e7" style="stroke:#b30a0a;stroke-width:0.25mm;fill:#f4e7e7"><path d="M 428.272 86.72 L 411.475 86.72 L 411.475 0.782 L 429.151 0.782 L 437.061 41.944 L 437.061 0.782 L 453.663 0.782 L 453.663 86.72 L 436.866 86.72 L 428.272 43.751 L 428.272 86.72 Z M 332.813 86.72 L 315.723 86.72 L 315.723 0.782 L 332.716 0.782 L 332.716 35.206 L 340.723 0.782 L 358.008 0.782 L 348.389 40.138 L 360.01 86.72 L 342.188 86.72 L 332.813 45.118 L 332.813 86.72 Z M 0.001 62.989 L 0.001 54.591 L 16.993 54.591 L 16.993 65.333 A 15.962 15.962 0 0 0 17.081 67.068 Q 17.275 68.838 17.896 69.996 A 3.033 3.033 0 0 0 20.097 71.594 A 4.92 4.92 0 0 0 21.046 71.68 A 6.294 6.294 0 0 0 22.189 71.584 Q 23.629 71.317 24.293 70.313 A 4.21 4.21 0 0 0 24.769 69.287 Q 25.101 68.263 25.175 66.737 A 18.956 18.956 0 0 0 25.196 65.821 A 33.177 33.177 0 0 0 25.086 63.037 Q 24.972 61.686 24.739 60.531 A 15.733 15.733 0 0 0 24.415 59.205 A 14.21 14.21 0 0 0 22.597 55.351 A 17.146 17.146 0 0 0 21.705 54.127 Q 19.776 51.71 16.358 48.487 L 8.643 41.163 Q 0.001 33.009 0.001 22.511 A 37.89 37.89 0 0 1 0.499 16.154 Q 1.081 12.738 2.344 10.019 A 17.475 17.475 0 0 1 5.103 5.763 A 16.463 16.463 0 0 1 13.735 0.689 Q 16.444 0.022 19.665 0.001 A 32.2 32.2 0 0 1 19.874 0.001 A 34.75 34.75 0 0 1 25.939 0.492 Q 29.172 1.067 31.674 2.313 A 14.377 14.377 0 0 1 36.646 6.3 Q 41.602 12.598 41.602 25.44 L 24.122 25.44 L 24.122 19.532 Q 24.122 17.774 23.121 16.798 A 3.342 3.342 0 0 0 21.456 15.926 A 4.926 4.926 0 0 0 20.411 15.821 Q 18.36 15.821 17.408 16.969 A 4.034 4.034 0 0 0 16.568 18.759 A 5.735 5.735 0 0 0 16.456 19.923 Q 16.456 21.729 17.432 23.829 Q 18.409 25.929 21.29 28.663 L 31.202 38.184 A 57.234 57.234 0 0 1 36.671 44.166 Q 39.161 47.315 40.675 51.49 Q 41.949 55.004 42.15 59.816 A 44.32 44.32 0 0 1 42.188 61.671 A 53.488 53.488 0 0 1 41.752 68.726 Q 41.257 72.438 40.201 75.489 A 23.454 23.454 0 0 1 37.72 80.64 A 14.148 14.148 0 0 1 29.818 86.454 Q 26.498 87.501 22.169 87.501 A 37.314 37.314 0 0 1 16.069 87.037 Q 12.838 86.501 10.304 85.342 A 15.112 15.112 0 0 1 5.201 81.641 A 17.561 17.561 0 0 1 1.932 76.006 Q 0.121 71.111 0.008 63.954 A 61.019 61.019 0 0 1 0.001 62.989 Z M 236.915 86.72 L 219.532 86.72 L 219.532 0.782 L 245.899 0.782 Q 252.491 0.782 255.86 3.785 A 13.422 13.422 0 0 1 259.204 8.473 A 18.993 18.993 0 0 1 260.377 12.183 A 48.58 48.58 0 0 1 261.161 17.264 Q 261.433 19.888 261.501 22.845 A 87.332 87.332 0 0 1 261.524 24.854 A 45.299 45.299 0 0 1 261.332 29.164 Q 260.939 33.263 259.742 36.085 A 9.842 9.842 0 0 1 254.699 41.233 A 14.034 14.034 0 0 1 253.028 41.895 Q 257.081 42.725 258.717 45.924 Q 260.002 48.438 260.277 52.114 A 27.984 27.984 0 0 1 260.352 54.2 L 260.352 86.72 L 243.409 86.72 L 243.409 53.077 Q 243.409 49.317 241.871 48.414 A 5.063 5.063 0 0 0 240.726 47.938 Q 239.59 47.606 237.917 47.532 A 22.742 22.742 0 0 0 236.915 47.511 L 236.915 86.72 Z M 281.544 86.72 L 264.844 86.72 L 273.145 0.782 L 302.296 0.782 L 310.45 86.72 L 294.19 86.72 L 292.969 72.852 L 282.618 72.852 L 281.544 86.72 Z M 377.296 86.72 L 360.596 86.72 L 368.897 0.782 L 398.048 0.782 L 406.202 86.72 L 389.942 86.72 L 388.721 72.852 L 378.37 72.852 L 377.296 86.72 Z M 95.118 86.72 L 77.93 86.72 L 77.93 17.286 L 67.725 17.286 L 67.725 0.782 L 105.323 0.782 L 105.323 17.286 L 95.118 17.286 L 95.118 86.72 Z M 134.669 86.72 L 117.481 86.72 L 117.481 17.286 L 107.276 17.286 L 107.276 0.782 L 144.874 0.782 L 144.874 17.286 L 134.669 17.286 L 134.669 86.72 Z M 189.21 86.72 L 172.315 86.72 L 172.315 0.782 L 195.02 0.782 A 25.939 25.939 0 0 1 199.572 1.157 Q 202.08 1.605 204.09 2.586 A 13.369 13.369 0 0 1 206.324 3.956 Q 210.499 7.13 212.305 12.989 A 37.871 37.871 0 0 1 213.572 18.76 Q 214.112 22.521 214.112 26.954 A 68.08 68.08 0 0 1 213.833 33.294 Q 213.543 36.387 212.952 39.077 A 38.022 38.022 0 0 1 212.598 40.553 A 20.039 20.039 0 0 1 210.9 44.97 A 14.865 14.865 0 0 1 207.203 49.513 A 12.827 12.827 0 0 1 202.85 51.791 Q 200.989 52.371 198.742 52.576 A 28.191 28.191 0 0 1 196.192 52.686 L 189.21 52.686 L 189.21 86.72 Z M 63.721 86.72 L 47.12 86.72 L 47.12 0.782 L 63.721 0.782 L 63.721 86.72 Z M 165.479 86.72 L 148.878 86.72 L 148.878 0.782 L 165.479 0.782 L 165.479 86.72 Z M 287.11 15.43 L 283.839 59.132 L 291.651 59.132 L 287.891 15.43 L 287.11 15.43 Z M 382.862 15.43 L 379.591 59.132 L 387.403 59.132 L 383.643 15.43 L 382.862 15.43 Z M 189.21 16.456 L 189.21 37.257 L 190.186 37.257 A 13.028 13.028 0 0 0 192.164 37.119 Q 195.215 36.648 196.046 34.571 A 11.807 11.807 0 0 0 196.612 32.645 Q 197.048 30.589 197.11 27.647 A 47.324 47.324 0 0 0 197.12 26.661 A 36.648 36.648 0 0 0 197.022 23.892 Q 196.823 21.276 196.218 19.519 A 9.745 9.745 0 0 0 196.07 19.117 A 3.892 3.892 0 0 0 193.422 16.758 Q 192.43 16.456 191.114 16.456 L 189.21 16.456 Z M 237.012 16.7 L 237.012 32.618 L 241.163 32.618 A 2.741 2.741 0 0 0 243.661 31.024 Q 244.413 29.667 244.635 27.156 A 26.311 26.311 0 0 0 244.727 24.854 A 51.129 51.129 0 0 0 244.69 22.82 Q 244.556 19.483 243.946 18.263 A 2.683 2.683 0 0 0 242.005 16.798 A 4.682 4.682 0 0 0 241.016 16.7 L 237.012 16.7 Z" vector-effect="non-scaling-stroke"/></g></svg>