<svg width="478.1" height="100.001" viewBox="0 0 478.1 100.001" xmlns="http://www.w3.org/2000/svg"><g id="svgGroup" stroke-linecap="round" fill-rule="evenodd" font-size="9pt" stroke="#c3deff" stroke-width="0.25mm" fill="#665f5f00" style="stroke:#c3deff;stroke-width:0.25mm;fill:#665f5f00"><path d="M 31.4 36.7 L 23.2 75 L 8.8 75 L 22.4 11.4 L 37.2 9.4 L 32.5 31.6 L 33.1 31.6 A 11.507 11.507 0 0 0 39.57 29.592 A 14.393 14.393 0 0 0 40.2 29.15 Q 43.5 26.7 45.5 22.95 Q 47.5 19.2 47.5 15.4 A 10.679 10.679 0 0 0 46.59 10.951 A 10.395 10.395 0 0 0 44.25 7.7 Q 41.722 5.289 37.107 4.753 A 24.379 24.379 0 0 0 34.3 4.6 Q 28.2 4.6 22.4 7.35 Q 16.6 10.1 12.95 15.6 A 21.588 21.588 0 0 0 9.695 24.015 A 29.036 29.036 0 0 0 9.3 28.9 Q 9.3 32.6 10 34.05 A 50.196 50.196 0 0 1 10.164 34.393 Q 10.593 35.299 10.679 35.592 A 0.434 0.434 0 0 1 10.7 35.7 A 20.956 20.956 0 0 1 7.782 35.511 Q 4.598 35.062 2.7 33.55 Q 0 31.4 0 26.5 A 18.486 18.486 0 0 1 2.692 16.989 A 25.354 25.354 0 0 1 5.1 13.6 A 34.17 34.17 0 0 1 13.443 6.464 A 43.649 43.649 0 0 1 18.6 3.75 Q 27 0 36.3 0 Q 42.1 0 46.39 1.511 A 20.218 20.218 0 0 1 48.1 2.2 A 20.285 20.285 0 0 1 51.596 4.219 A 14.455 14.455 0 0 1 55.25 8 Q 57.6 11.6 57.6 15.9 Q 57.6 20.5 55 24.8 A 19.237 19.237 0 0 1 49.064 30.906 A 23.402 23.402 0 0 1 47.6 31.8 A 15.62 15.62 0 0 1 51.777 33.152 A 11.847 11.847 0 0 1 56.5 37.35 Q 59.4 41.8 59.4 47.9 Q 59.4 53.6 57.25 60.3 Q 55.1 67 50.15 71.85 A 16.797 16.797 0 0 1 39.668 76.599 A 22.689 22.689 0 0 1 37.5 76.7 Q 33.5 76.7 30.55 75.05 A 5.517 5.517 0 0 1 27.762 71.088 A 9.291 9.291 0 0 1 27.6 69.3 Q 27.6 67.051 28.573 64.352 A 22.934 22.934 0 0 1 28.9 63.5 Q 30.102 64.836 31.193 65.637 A 7.996 7.996 0 0 0 32.25 66.3 Q 33.8 67.1 35.6 67.1 A 7.149 7.149 0 0 0 41.52 64.144 Q 42.377 63.036 43.045 61.512 A 16.598 16.598 0 0 0 43.05 61.5 A 29.428 29.428 0 0 0 45.365 52.222 A 35.566 35.566 0 0 0 45.5 49.1 Q 45.5 36.964 36.824 36.425 A 13.307 13.307 0 0 0 36 36.4 A 40.942 40.942 0 0 0 34.088 36.443 Q 33.15 36.486 32.335 36.576 A 20.082 20.082 0 0 0 31.4 36.7 Z M 205.4 75 L 203.8 6.7 A 24.998 24.998 0 0 0 197.329 10.269 A 21.367 21.367 0 0 0 192.8 15.05 A 21.651 21.651 0 0 0 189.361 23.564 A 29.614 29.614 0 0 0 188.9 28.9 Q 188.9 32.6 189.6 34.05 A 50.196 50.196 0 0 1 189.764 34.393 Q 190.193 35.299 190.279 35.592 A 0.434 0.434 0 0 1 190.3 35.7 A 20.861 20.861 0 0 1 187.48 35.522 Q 186.025 35.323 184.842 34.902 A 8.223 8.223 0 0 1 182.25 33.45 A 6.745 6.745 0 0 1 180.326 30.636 Q 179.896 29.501 179.72 28.083 A 17.01 17.01 0 0 1 179.6 26 A 16.53 16.53 0 0 1 181.55 18.33 Q 182.799 15.914 184.85 13.55 Q 190.1 7.5 198.3 3.75 A 41.466 41.466 0 0 1 208.55 0.528 A 36.323 36.323 0 0 1 214.7 0 Q 216.1 0 218.7 0.2 L 219.6 61.7 L 240.6 0.5 L 247.6 0.5 L 219.8 75 L 205.4 75 Z M 305.1 75.4 L 306.3 70 A 21.909 21.909 0 0 1 304.111 72.119 Q 302.849 73.172 301.568 73.855 A 11.749 11.749 0 0 1 300.4 74.4 Q 297.4 75.6 294.3 75.6 A 12.469 12.469 0 0 1 290.769 75.124 A 9.634 9.634 0 0 1 286.55 72.6 A 9.385 9.385 0 0 1 284.384 68.99 Q 283.882 67.519 283.701 65.721 A 21.244 21.244 0 0 1 283.6 63.6 Q 283.6 61.214 284.329 57.462 A 66.029 66.029 0 0 1 284.4 57.1 L 291.2 25 L 305.6 25 L 298.4 59 Q 298.1 60.2 298.1 61.5 A 9.551 9.551 0 0 0 298.214 63.051 Q 298.669 65.795 300.924 65.896 A 3.914 3.914 0 0 0 301.1 65.9 Q 303.7 65.9 305.7 63.65 A 13.585 13.585 0 0 0 307.475 61.084 Q 308.138 59.861 308.664 58.392 A 24.024 24.024 0 0 0 308.9 57.7 L 315.9 25 L 330.3 25 L 320.4 71.4 A 20.444 20.444 0 0 0 324.483 69.549 A 15.893 15.893 0 0 0 328.1 66.6 A 17.118 17.118 0 0 0 330.148 63.764 Q 331.75 61.038 333 57.1 L 337.2 57.1 A 44.142 44.142 0 0 1 335.327 62.199 Q 334.195 64.748 332.838 66.736 A 18.967 18.967 0 0 1 329.9 70.15 Q 325.3 74.3 319.5 75.8 L 318 83 A 38.332 38.332 0 0 1 316.646 87.978 Q 314.622 93.727 311.1 96.35 Q 306.2 100 300 100 A 15.192 15.192 0 0 1 296.267 99.564 A 11.373 11.373 0 0 1 292 97.5 A 8.113 8.113 0 0 1 288.932 92.119 A 12.035 12.035 0 0 1 288.8 90.3 A 11.353 11.353 0 0 1 289.845 85.379 Q 290.921 83.108 293.104 81.378 A 14.219 14.219 0 0 1 293.4 81.15 Q 297.542 78.044 303.71 75.87 A 57.374 57.374 0 0 1 305.1 75.4 Z M 408.4 75.4 L 409.6 70.1 A 18.104 18.104 0 0 1 404.977 73.762 A 15.218 15.218 0 0 1 397.6 75.6 A 13.692 13.692 0 0 1 392.524 74.685 A 12.609 12.609 0 0 1 388.1 71.7 Q 385.235 68.76 384.53 63.319 A 29.775 29.775 0 0 1 384.3 59.5 A 41.743 41.743 0 0 1 385.438 50.019 A 53.508 53.508 0 0 1 387.25 43.95 A 36.675 36.675 0 0 1 393.306 33.132 A 34.348 34.348 0 0 1 396.05 30.15 Q 401.9 24.5 410 24.5 A 19.255 19.255 0 0 1 412.14 24.611 Q 414.429 24.868 415.825 25.72 A 5.271 5.271 0 0 1 416.1 25.9 A 5.04 5.04 0 0 1 417.319 27.077 A 4.208 4.208 0 0 1 418.1 29.6 L 418.1 30.2 L 419.2 25 L 433.6 25 L 423.7 71.4 A 20.444 20.444 0 0 0 427.783 69.549 A 15.893 15.893 0 0 0 431.4 66.6 A 17.118 17.118 0 0 0 433.448 63.764 Q 435.05 61.038 436.3 57.1 L 440.5 57.1 A 44.142 44.142 0 0 1 438.627 62.199 Q 437.495 64.748 436.138 66.736 A 18.967 18.967 0 0 1 433.2 70.15 Q 428.6 74.3 422.8 75.8 L 421.3 83 A 38.332 38.332 0 0 1 419.946 87.978 Q 417.922 93.727 414.4 96.35 Q 409.5 100 403.3 100 A 15.192 15.192 0 0 1 399.567 99.564 A 11.373 11.373 0 0 1 395.3 97.5 A 8.113 8.113 0 0 1 392.232 92.119 A 12.035 12.035 0 0 1 392.1 90.3 A 11.353 11.353 0 0 1 393.145 85.379 Q 394.221 83.108 396.404 81.378 A 14.219 14.219 0 0 1 396.7 81.15 Q 400.842 78.044 407.01 75.87 A 57.374 57.374 0 0 1 408.4 75.4 Z M 124.2 42.9 L 117.4 75 L 103 75 L 113.6 25 L 128 25 L 126.9 30.2 A 18.22 18.22 0 0 1 131.066 26.68 A 14.331 14.331 0 0 1 138.6 24.6 A 15.036 15.036 0 0 1 141.994 24.962 Q 144.713 25.591 146.609 27.317 A 9.662 9.662 0 0 1 146.7 27.4 A 8.761 8.761 0 0 1 149.03 31.16 Q 149.7 33.206 149.7 35.9 Q 149.7 38.71 149.043 42.129 A 46.208 46.208 0 0 1 149 42.35 Q 148.3 45.9 147 51 A 175.423 175.423 0 0 0 145.632 56.681 A 160.665 160.665 0 0 0 145.55 57.05 A 40.513 40.513 0 0 0 145.221 58.692 Q 144.945 60.249 144.906 61.351 A 9.904 9.904 0 0 0 144.9 61.7 A 7.151 7.151 0 0 0 144.995 62.903 Q 145.192 64.057 145.8 64.8 A 2.646 2.646 0 0 0 146.883 65.571 Q 147.334 65.754 147.906 65.835 A 7.079 7.079 0 0 0 148.9 65.9 A 6.758 6.758 0 0 0 151.179 65.532 A 5.773 5.773 0 0 0 153.7 63.75 Q 155.5 61.6 157.3 57.1 L 161.5 57.1 A 62.897 62.897 0 0 1 159.453 62.433 Q 157.151 67.648 154.469 70.469 A 13.496 13.496 0 0 1 152.95 71.85 A 19.501 19.501 0 0 1 148.796 74.347 A 14.682 14.682 0 0 1 142.9 75.6 A 18.094 18.094 0 0 1 139.565 75.314 Q 135.954 74.635 133.95 72.35 Q 131.1 69.1 131.1 64.3 A 21.173 21.173 0 0 1 131.21 62.211 Q 131.334 60.958 131.6 59.55 Q 132.1 56.9 132.65 54.4 Q 133.183 51.976 133.388 51.244 A 7.505 7.505 0 0 1 133.4 51.2 Q 134.2 47.7 134.9 44.3 A 46.699 46.699 0 0 0 135.269 42.302 Q 135.6 40.244 135.6 38.8 A 10.701 10.701 0 0 0 135.463 37.003 Q 134.913 33.794 132.162 33.703 A 4.913 4.913 0 0 0 132 33.7 Q 129.4 33.7 127.4 36.25 A 15.743 15.743 0 0 0 125.701 38.982 Q 125.026 40.341 124.49 41.968 A 28.812 28.812 0 0 0 124.2 42.9 Z M 365.5 29.6 L 365.5 30.3 L 366.6 25 L 381 25 L 373.8 59 Q 373.4 60.5 373.4 62.2 A 6.512 6.512 0 0 0 373.596 63.876 Q 374.168 66.019 376.41 66.412 A 6.322 6.322 0 0 0 377.5 66.5 A 5.619 5.619 0 0 0 381.346 64.978 A 8.486 8.486 0 0 0 382.35 63.9 A 15.698 15.698 0 0 0 384.085 61.111 Q 384.771 59.721 385.31 58.055 A 28.82 28.82 0 0 0 385.6 57.1 L 389.8 57.1 Q 386.1 67.9 380.65 71.75 Q 375.2 75.6 369.7 75.6 Q 365.5 75.6 362.95 73.25 Q 360.61 71.094 359.996 67.126 A 17.113 17.113 0 0 1 359.9 66.4 A 30.712 30.712 0 0 1 356.432 70.522 A 24.943 24.943 0 0 1 353.45 73.05 A 13.547 13.547 0 0 1 346.935 75.495 A 17.382 17.382 0 0 1 345 75.6 A 13.692 13.692 0 0 1 339.924 74.685 A 12.609 12.609 0 0 1 335.5 71.7 Q 332.635 68.76 331.93 63.319 A 29.775 29.775 0 0 1 331.7 59.5 A 41.743 41.743 0 0 1 332.838 50.019 A 53.508 53.508 0 0 1 334.65 43.95 A 36.675 36.675 0 0 1 340.706 33.132 A 34.348 34.348 0 0 1 343.45 30.15 Q 349.3 24.5 357.4 24.5 A 19.255 19.255 0 0 1 359.54 24.611 Q 361.829 24.868 363.225 25.72 A 5.271 5.271 0 0 1 363.5 25.9 A 5.04 5.04 0 0 1 364.719 27.077 A 4.208 4.208 0 0 1 365.5 29.6 Z M 474.7 57.1 L 478.1 57.1 A 51.435 51.435 0 0 1 471.437 66.043 Q 466.7 71.046 461.213 73.43 A 26.345 26.345 0 0 1 450.6 75.6 A 22.853 22.853 0 0 1 446.001 75.166 Q 441.823 74.307 439.1 71.75 A 11.796 11.796 0 0 1 436.09 67 Q 435.411 65.086 435.155 62.724 A 28.096 28.096 0 0 1 435 59.7 Q 435 53.232 437.373 45.532 A 69.739 69.739 0 0 1 437.7 44.5 Q 440.4 36.2 446.5 30.15 A 20.641 20.641 0 0 1 459.983 24.173 A 27.62 27.62 0 0 1 462 24.1 A 18.339 18.339 0 0 1 466.151 24.527 Q 473 26.125 473 33.7 Q 473 39.3 469.8 44 A 23.524 23.524 0 0 1 461.629 51.37 A 27.397 27.397 0 0 1 461.3 51.55 Q 456 54.4 450 54.8 Q 449.828 57.388 449.804 58.488 A 14.663 14.663 0 0 0 449.8 58.8 A 22.107 22.107 0 0 0 449.903 61.021 Q 450.128 63.235 450.842 64.542 A 4.153 4.153 0 0 0 451.5 65.45 A 5.066 5.066 0 0 0 453.369 66.639 Q 454.848 67.2 457 67.2 A 19.48 19.48 0 0 0 461.576 66.687 A 14.942 14.942 0 0 0 466.25 64.7 Q 469.047 62.884 472.24 59.695 A 68.658 68.658 0 0 0 474.7 57.1 Z M 101.7 40.1 L 101.7 40.2 A 1.29 1.29 0 0 0 101.881 40.244 Q 102.185 40.298 102.746 40.3 A 12.398 12.398 0 0 0 102.8 40.3 A 15.135 15.135 0 0 0 105.646 40.011 Q 107.847 39.589 110.4 38.55 A 38.889 38.889 0 0 0 116.745 35.285 A 34.975 34.975 0 0 0 118.2 34.3 L 119.1 37 A 21.167 21.167 0 0 1 115.284 40.187 A 28.355 28.355 0 0 1 111.55 42.25 A 38.171 38.171 0 0 1 103.433 44.919 A 43.914 43.914 0 0 1 101.4 45.3 A 52.831 52.831 0 0 1 100.038 53.576 A 39.511 39.511 0 0 1 97.3 61.2 A 31.452 31.452 0 0 1 93.789 66.894 A 24.062 24.062 0 0 1 88.8 71.7 Q 83.6 75.4 77.5 75.4 Q 71.466 75.4 67.493 72.874 A 13.461 13.461 0 0 1 65.8 71.6 A 11.664 11.664 0 0 1 62.542 66.606 Q 61.866 64.68 61.629 62.306 A 27.212 27.212 0 0 1 61.5 59.6 Q 61.5 53.478 63.77 46.139 A 67.864 67.864 0 0 1 64.3 44.5 Q 67.1 36.2 73.3 30.15 Q 79.5 24.1 88.9 24.1 Q 100.446 24.1 101.577 37.119 A 34.488 34.488 0 0 1 101.7 40.1 Z M 279.3 40.1 L 279.3 40.2 A 1.29 1.29 0 0 0 279.481 40.244 Q 279.785 40.298 280.346 40.3 A 12.398 12.398 0 0 0 280.4 40.3 A 15.135 15.135 0 0 0 283.246 40.011 Q 285.447 39.589 288 38.55 A 38.889 38.889 0 0 0 294.345 35.285 A 34.975 34.975 0 0 0 295.8 34.3 L 296.7 37 A 21.167 21.167 0 0 1 292.884 40.187 A 28.355 28.355 0 0 1 289.15 42.25 A 38.171 38.171 0 0 1 281.033 44.919 A 43.914 43.914 0 0 1 279 45.3 A 52.831 52.831 0 0 1 277.638 53.576 A 39.511 39.511 0 0 1 274.9 61.2 A 31.452 31.452 0 0 1 271.389 66.894 A 24.062 24.062 0 0 1 266.4 71.7 Q 261.2 75.4 255.1 75.4 Q 249.066 75.4 245.093 72.874 A 13.461 13.461 0 0 1 243.4 71.6 A 11.664 11.664 0 0 1 240.142 66.606 Q 239.466 64.68 239.229 62.306 A 27.212 27.212 0 0 1 239.1 59.6 Q 239.1 53.478 241.37 46.139 A 67.864 67.864 0 0 1 241.9 44.5 Q 244.7 36.2 250.9 30.15 Q 257.1 24.1 266.5 24.1 Q 278.046 24.1 279.177 37.119 A 34.488 34.488 0 0 1 279.3 40.1 Z M 85.168 64.794 A 12.04 12.04 0 0 0 86.3 63.65 A 18.443 18.443 0 0 0 88.218 60.974 Q 89.052 59.578 89.796 57.88 A 37.013 37.013 0 0 0 90.5 56.15 Q 92.3 51.4 93.1 45.6 A 3.084 3.084 0 0 1 90.749 43.6 Q 90.4 42.694 90.4 41.4 Q 90.4 37.3 93.5 36 Q 93.3 32.7 92.5 31.45 A 2.544 2.544 0 0 0 91.055 30.383 Q 90.466 30.2 89.7 30.2 A 5.11 5.11 0 0 0 86.951 31.055 Q 85.285 32.104 83.673 34.442 A 22.136 22.136 0 0 0 83.3 35 A 36.934 36.934 0 0 0 80.345 40.637 A 49.916 49.916 0 0 0 78.3 46.5 A 58.874 58.874 0 0 0 77.142 51.3 Q 76.655 53.802 76.488 56.035 A 30.311 30.311 0 0 0 76.4 58.3 A 32.944 32.944 0 0 0 76.46 60.377 Q 76.655 63.443 77.476 64.714 A 3.005 3.005 0 0 0 77.5 64.75 Q 78.407 66.11 80.536 66.349 A 8.651 8.651 0 0 0 81.5 66.4 Q 83.334 66.4 85.168 64.794 Z M 262.768 64.794 A 12.04 12.04 0 0 0 263.9 63.65 A 18.443 18.443 0 0 0 265.818 60.974 Q 266.652 59.578 267.396 57.88 A 37.013 37.013 0 0 0 268.1 56.15 Q 269.9 51.4 270.7 45.6 A 3.084 3.084 0 0 1 268.349 43.6 Q 268 42.694 268 41.4 Q 268 37.3 271.1 36 Q 270.9 32.7 270.1 31.45 A 2.544 2.544 0 0 0 268.655 30.383 Q 268.066 30.2 267.3 30.2 A 5.11 5.11 0 0 0 264.551 31.055 Q 262.885 32.104 261.273 34.442 A 22.136 22.136 0 0 0 260.9 35 A 36.934 36.934 0 0 0 257.945 40.637 A 49.916 49.916 0 0 0 255.9 46.5 A 58.874 58.874 0 0 0 254.742 51.3 Q 254.255 53.802 254.088 56.035 A 30.311 30.311 0 0 0 254 58.3 A 32.944 32.944 0 0 0 254.06 60.377 Q 254.255 63.443 255.076 64.714 A 3.005 3.005 0 0 0 255.1 64.75 Q 256.007 66.11 258.136 66.349 A 8.651 8.651 0 0 0 259.1 66.4 Q 260.934 66.4 262.768 64.794 Z M 412.1 58.1 L 417.2 34.4 A 3.216 3.216 0 0 0 416.926 33.13 Q 416.739 32.692 416.424 32.247 A 6.351 6.351 0 0 0 416.2 31.95 A 3.156 3.156 0 0 0 414.573 30.891 Q 414.043 30.736 413.402 30.707 A 6.663 6.663 0 0 0 413.1 30.7 Q 409.666 30.7 406.821 34.128 A 17.036 17.036 0 0 0 405.9 35.35 A 32.611 32.611 0 0 0 402.743 41.183 A 43.367 43.367 0 0 0 400.9 46.55 Q 399.469 51.757 399.176 55.984 A 30.572 30.572 0 0 0 399.1 58.1 Q 399.1 62.834 400.4 64.341 A 2.401 2.401 0 0 0 400.55 64.5 Q 402 65.9 404.1 65.9 Q 406.041 65.9 408.052 64.405 A 12.069 12.069 0 0 0 408.8 63.8 Q 411.2 61.7 412.1 58.1 Z M 359.8 57.1 L 364.6 34.5 A 3.6 3.6 0 0 0 364.209 32.895 A 5.189 5.189 0 0 0 363.6 31.95 A 3.156 3.156 0 0 0 361.973 30.891 Q 361.443 30.736 360.802 30.707 A 6.663 6.663 0 0 0 360.5 30.7 Q 357.066 30.7 354.221 34.128 A 17.036 17.036 0 0 0 353.3 35.35 A 32.611 32.611 0 0 0 350.143 41.183 A 43.367 43.367 0 0 0 348.3 46.55 Q 346.869 51.757 346.576 55.984 A 30.572 30.572 0 0 0 346.5 58.1 Q 346.5 62.834 347.8 64.341 A 2.401 2.401 0 0 0 347.95 64.5 Q 349.4 65.9 351.5 65.9 A 5.814 5.814 0 0 0 354.142 65.237 Q 354.976 64.816 355.803 64.129 A 12.146 12.146 0 0 0 356.45 63.55 A 10.833 10.833 0 0 0 358.813 60.143 A 15.414 15.414 0 0 0 359.8 57.1 Z M 450.8 50 Q 454.5 49.8 457.85 47.4 Q 461.2 45 463.25 41.3 Q 465.3 37.6 465.3 33.5 Q 465.3 29.4 462.8 29.4 A 4.792 4.792 0 0 0 460.121 30.286 Q 457.906 31.763 455.75 35.7 A 45.223 45.223 0 0 0 451.928 45.166 A 55.223 55.223 0 0 0 450.8 50 Z M 303.5 83.3 L 304.1 80.4 A 36.376 36.376 0 0 0 300.523 81.916 Q 294.3 84.996 294.3 88.9 Q 294.3 90.2 295.2 91.2 A 2.948 2.948 0 0 0 296.899 92.13 A 4.335 4.335 0 0 0 297.7 92.2 Q 299.355 92.2 300.916 90.02 A 10.961 10.961 0 0 0 301 89.9 Q 302.6 87.6 303.5 83.3 Z M 406.8 83.3 L 407.4 80.4 A 36.376 36.376 0 0 0 403.823 81.916 Q 397.6 84.996 397.6 88.9 Q 397.6 90.2 398.5 91.2 A 2.948 2.948 0 0 0 400.199 92.13 A 4.335 4.335 0 0 0 401 92.2 Q 402.655 92.2 404.216 90.02 A 10.961 10.961 0 0 0 404.3 89.9 Q 405.9 87.6 406.8 83.3 Z" vector-effect="non-scaling-stroke"/></g></svg>